#!OML:ASF F:\VICON\USERDATA\INSTALL\rory3\rory3.ASF
:FULLY-SPECIFIED
:DEGREES
1733
root -0.136413 15.5737 -4.66093 -19.0308 1.66241 -716.182
lowerback 23.7329 0.891678 -3.99571
upperback 10.256 0.37139 1.33799
thorax -1.96245 0.0416575 3.63018
lowerneck -20.3552 -6.34666 -12.9718
upperneck 17.9483 -6.40314 7.18515
head 9.70682 -3.08129 3.70106
rclavicle 6.16232e-015 -3.18055e-015
rhumerus -32.7662 20.1183 -91.1912
rradius 101.505
rwrist 28.6662
rhand -37.6246 16.676
rfingers 7.12502
rthumb -10.6772 -13.0327
lclavicle 6.16232e-015 -3.18055e-015
lhumerus -32.3646 -23.9787 93.8815
lradius 91.2039
lwrist -26.1517
lhand -40.7603 14.5924
lfingers 7.12502
lthumb -13.7006 44.1214
rfemur -85.02 -10.0738 30.1495
rtibia 135.723
rfoot 11.2528 -11.8243
rtoes 10.6863
lfemur -85.1418 13.3485 -36.6253
ltibia 133.458
lfoot -2.50297 -4.25662
ltoes -5.76512
1734
root -0.133137 15.5743 -4.65618 -18.9643 1.62958 -716.18
lowerback 23.7805 0.894453 -4.02057
upperback 10.1705 0.365036 1.30626
thorax -2.07887 0.0425415 3.61199
lowerneck -20.071 -6.37861 -13.0162
upperneck 17.803 -6.48414 7.25683
head 9.61814 -3.11787 3.72373
rclavicle -1.86858e-014 6.36111e-015
rhumerus -32.9166 20.1574 -91.2831
rradius 101.578
rwrist 28.8152
rhand -37.5637 16.7593
rfingers 7.12502
rthumb -10.6184 -12.9524
lclavicle -1.86858e-014 6.36111e-015
lhumerus -32.5345 -23.9478 93.9206
lradius 91.1628
lwrist -26.2413
lhand -40.8388 14.9211
lfingers 7.12502
lthumb -13.7763 44.445
rfemur -85.1494 -10.0964 30.0402
rtibia 135.62
rfoot 11.5484 -11.8714
rtoes 11.7072
lfemur -85.2682 13.4221 -36.6648
ltibia 133.411
lfoot -2.46063 -4.02223
ltoes -6.74428
1735
root -0.130212 15.5743 -4.65227 -18.9154 1.50904 -716.308
lowerback 23.8363 0.884722 -3.93435
upperback 10.1139 0.368627 1.33748
thorax -2.1694 0.0486096 3.59589
lowerneck -20.0837 -6.39628 -13.0433
upperneck 17.9138 -6.49395 7.2156
head 9.66024 -3.13006 3.71274
rclavicle -4.17448e-015 -3.97569e-015
rhumerus -32.9739 20.2848 -91.3133
rradius 101.553
rwrist 28.9689
rhand -37.6103 16.6798
rfingers 7.12502
rthumb -10.6634 -13.0297
lclavicle -4.17448e-015 -3.97569e-015
lhumerus -32.6194 -23.8224 93.9214
lradius 91.1362
lwrist -26.3835
lhand -40.84 14.9423
lfingers 7.12502
lthumb -13.7774 44.4661
rfemur -85.331 -9.99879 30.143
rtibia 135.498
rfoot 12.0623 -12.074
rtoes 11.7076
lfemur -85.4734 13.6419 -36.5568
ltibia 133.428
lfoot -2.12011 -3.83127
ltoes -5.97313
1736
root -0.129562 15.6429 -4.70133 -18.8475 1.48198 -716.325
lowerback 23.7525 0.867852 -3.95525
upperback 10.1613 0.345279 1.3269
thorax -2.07418 0.0335097 3.60174
lowerneck -20.2422 -6.41589 -13.0224
upperneck 17.9707 -6.50008 7.18324
head 9.70733 -3.13248 3.69503
rclavicle 1.80894e-014 4.77083e-015
rhumerus -32.8571 20.4439 -91.3107
rradius 101.511
rwrist 29.1046
rhand -37.7951 16.5438
rfingers 7.12502
rthumb -10.8417 -13.1563
lclavicle 1.80894e-014 4.77083e-015
lhumerus -32.5325 -23.7005 93.8528
lradius 91.0952
lwrist -26.5195
lhand -40.7983 14.5882
lfingers 7.12502
lthumb -13.7372 44.1147
rfemur -85.0531 -10.2677 30.0644
rtibia 134.842
rfoot 12.1748 -11.3657
rtoes 10.1396
lfemur -85.0381 13.9545 -36.5402
ltibia 132.84
lfoot -1.73525 -3.81426
ltoes -4.56839
1737
root -0.127147 15.6464 -4.69572 -18.7532 1.5869 -716.168
lowerback 23.5837 0.845229 -4.16669
upperback 10.2525 0.276244 1.25791
thorax -1.88323 -0.0112355 3.66414
lowerneck -20.3351 -6.41243 -13.0371
upperneck 17.8613 -6.48786 7.24864
head 9.68665 -3.11718 3.72026
rclavicle -9.93923e-016 -2.06736e-014
rhumerus -32.6616 20.5866 -91.2481
rradius 101.521
rwrist 29.2042
rhand -38.016 16.6501
rfingers 7.12502
rthumb -11.0547 -13.0388
lclavicle -9.93923e-016 -2.06736e-014
lhumerus -32.3793 -23.5755 93.7573
lradius 91.0498
lwrist -26.5568
lhand -40.5846 14.1804
lfingers 7.12502
lthumb -13.5313 43.7207
rfemur -85.2203 -10.4765 29.7959
rtibia 134.802
rfoot 12.4617 -11.3367
rtoes 11.5516
lfemur -84.983 13.8079 -36.7627
ltibia 132.803
lfoot -1.65585 -3.56487
ltoes -3.83412
1738
root -0.125655 15.6443 -4.6915 -18.6873 1.54995 -716.185
lowerback 23.5458 0.853776 -4.26971
upperback 10.307 0.269168 1.29885
thorax -1.80298 -0.0220535 3.76891
lowerneck -20.3305 -6.38527 -13.1365
upperneck 17.7139 -6.42909 7.31647
head 9.63341 -3.08741 3.76826
rclavicle -1.86858e-014 1.51076e-014
rhumerus -32.4817 20.757 -91.0355
rradius 101.529
rwrist 29.2979
rhand -38.1827 16.7024
rfingers 7.12502
rthumb -11.2155 -12.9778
lclavicle -1.86858e-014 1.51076e-014
lhumerus -32.2538 -23.4032 93.7598
lradius 91.06
lwrist -26.6373
lhand -40.4322 14.0405
lfingers 7.12502
lthumb -13.3844 43.5905
rfemur -85.2949 -10.4444 29.7837
rtibia 134.731
rfoot 12.216 -10.7895
rtoes 11.5832
lfemur -85.09 13.8907 -36.79
ltibia 132.852
lfoot -1.67333 -3.53291
ltoes -3.9701
1739
root -0.121718 15.5741 -4.63413 -18.6517 1.36224 -716.383
lowerback 23.5755 0.878206 -4.15894
upperback 10.3505 0.32579 1.3821
thorax -1.77612 0.00542378 3.78186
lowerneck -20.3396 -6.3783 -13.1766
upperneck 17.5864 -6.40049 7.31897
head 9.58847 -3.07465 3.77849
rclavicle -1.70955e-014 1.98785e-014
rhumerus -32.321 20.8964 -90.8499
rradius 101.481
rwrist 29.4032
rhand -38.2643 16.6273
rfingers 7.12502
rthumb -11.2942 -13.0486
lclavicle -1.70955e-014 1.98785e-014
lhumerus -32.1723 -23.2991 93.7953
lradius 91.1589
lwrist -26.6834
lhand -40.4483 14.266
lfingers 7.12502
lthumb -13.3999 43.8151
rfemur -85.8502 -9.97368 30.0683
rtibia 135.209
rfoot 11.7131 -10.7769
rtoes 10.9569
lfemur -85.8254 13.9868 -36.6299
ltibia 133.581
lfoot -1.70041 -3.46432
ltoes -3.50611
1740
root -0.118212 15.5706 -4.62742 -18.6158 1.17483 -716.585
lowerback 23.5806 0.886686 -3.99376
upperback 10.3413 0.372129 1.42963
thorax -1.79462 0.0324393 3.72736
lowerneck -20.3482 -6.38102 -13.1967
upperneck 17.5991 -6.40207 7.33945
head 9.59615 -3.0745 3.78885
rclavicle -2.22639e-014 1.19271e-014
rhumerus -32.3955 20.9521 -90.8262
rradius 101.5
rwrist 29.5065
rhand -38.3187 16.7444
rfingers 7.12502
rthumb -11.3466 -12.9286
lclavicle -2.22639e-014 1.19271e-014
lhumerus -32.2646 -23.2144 93.8906
lradius 91.2231
lwrist -26.7984
lhand -40.6795 14.5947
lfingers 7.12502
lthumb -13.6228 44.129
rfemur -85.8631 -9.73112 30.2931
rtibia 135.112
rfoot 11.5973 -10.7518
rtoes 10.3967
lfemur -85.983 14.2722 -36.4221
ltibia 133.721
lfoot -1.76509 -3.55903
ltoes -3.28111
1741
root -0.11409 15.5672 -4.61988 -18.5617 1.07603 -716.7
lowerback 23.6072 0.867121 -3.93245
upperback 10.25 0.358213 1.45834
thorax -1.90716 0.0304412 3.72703
lowerneck -20.176 -6.34439 -13.2648
upperneck 17.6113 -6.36051 7.36055
head 9.56854 -3.0614 3.81645
rclavicle 7.15625e-015 9.54166e-015
rhumerus -32.6669 21.0575 -90.859
rradius 101.564
rwrist 29.5663
rhand -38.4689 17.0004
rfingers 7.12502
rthumb -11.4915 -12.6646
lclavicle 7.15625e-015 9.54166e-015
lhumerus -32.4822 -23.0213 94.013
lradius 91.257
lwrist -26.9413
lhand -40.8525 14.7195
lfingers 7.12502
lthumb -13.7895 44.2424
rfemur -85.9126 -9.63487 30.4146
rtibia 135.086
rfoot 11.5655 -10.4777
rtoes 9.97852
lfemur -86.0355 14.3791 -36.321
ltibia 133.82
lfoot -1.81763 -3.62062
ltoes -3.2327
1742
root -0.110586 15.5661 -4.61417 -18.469 1.17067 -716.598
lowerback 23.5676 0.851096 -4.05331
upperback 10.2144 0.310797 1.3952
thorax -1.92163 0.00598798 3.73944
lowerneck -20.036 -6.36794 -13.2973
upperneck 17.5628 -6.4079 7.38965
head 9.53429 -3.08462 3.82611
rclavicle -2.60408e-014 1.19271e-014
rhumerus -32.7922 21.0975 -90.8758
rradius 101.602
rwrist 29.5331
rhand -38.6306 17.15
rfingers 7.12502
rthumb -11.6475 -12.5062
lclavicle -2.60408e-014 1.19271e-014
lhumerus -32.6194 -22.9179 94.0474
lradius 91.3814
lwrist -27.0317
lhand -40.7529 14.663
lfingers 7.12502
lthumb -13.6935 44.1924
rfemur -86.102 -9.84807 30.2651
rtibia 135.126
rfoot 11.4825 -10.0267
rtoes 9.62648
lfemur -86.0272 14.1618 -36.491
ltibia 133.815
lfoot -1.70953 -3.53696
ltoes -2.77327
1743
root -0.108492 15.5676 -4.61215 -18.3733 1.28278 -716.451
lowerback 23.5139 0.862526 -4.17112
upperback 10.2523 0.299287 1.28148
thorax -1.85154 -0.00238524 3.68619
lowerneck -20.0936 -6.44814 -13.2722
upperneck 17.5347 -6.53219 7.45555
head 9.55005 -3.13169 3.82514
rclavicle -7.95139e-015 -3.97569e-015
rhumerus -32.6954 21.0244 -90.8732
rradius 101.621
rwrist 29.5015
rhand -38.6827 17.0054
rfingers 7.12502
rthumb -11.6977 -12.648
lclavicle -7.95139e-015 -3.97569e-015
lhumerus -32.5869 -23.0045 93.9618
lradius 91.5289
lwrist -27.0137
lhand -40.5946 14.6265
lfingers 7.12502
lthumb -13.541 44.1662
rfemur -86.2387 -10.0764 30.0594
rtibia 135.125
rfoot 11.3264 -9.75543
rtoes 9.88068
lfemur -85.9992 13.9249 -36.7031
ltibia 133.757
lfoot -1.56754 -3.43689
ltoes -2.72163
1744
root -0.107735 15.5651 -4.6075 -18.3073 1.24503 -716.481
lowerback 23.5265 0.870647 -4.15651
upperback 10.2447 0.310406 1.24342
thorax -1.86735 0.00492915 3.63397
lowerneck -20.0958 -6.48099 -13.3369
upperneck 17.5253 -6.58438 7.57411
head 9.5598 -3.14716 3.86973
rclavicle -1.59028e-014 1.59028e-015
rhumerus -32.646 21.102 -90.9107
rradius 101.553
rwrist 29.2092
rhand -38.8117 16.9826
rfingers 7.12502
rthumb -11.8221 -12.6637
lclavicle -1.59028e-014 1.59028e-015
lhumerus -32.5428 -23.0364 93.8777
lradius 91.5642
lwrist -26.8554
lhand -40.7249 14.57
lfingers 7.12502
lthumb -13.6665 44.1013
rfemur -86.2539 -10.0042 30.0768
rtibia 135.071
rfoot 11.0175 -9.60913
rtoes 10.1895
lfemur -86.0917 13.9402 -36.6844
ltibia 133.756
lfoot -1.41934 -3.50608
ltoes -3.02661
1745
root -0.104709 15.5568 -4.59606 -18.2581 1.12395 -716.569
lowerback 23.4771 0.859884 -4.09018
upperback 10.2508 0.310763 1.22327
thorax -1.83722 0.00634705 3.57382
lowerneck -20.0054 -6.44656 -13.264
upperneck 17.4083 -6.55663 7.53142
head 9.49514 -3.1344 3.84708
rclavicle -1.47101e-014 -4.77083e-015
rhumerus -32.6939 21.2974 -91.0109
rradius 101.465
rwrist 28.6649
rhand -38.9821 17.0684
rfingers 7.12502
rthumb -11.9864 -12.5684
lclavicle -1.47101e-014 -4.77083e-015
lhumerus -32.526 -22.969 93.7891
lradius 91.5735
lwrist -26.7427
lhand -40.9186 14.511
lfingers 7.12502
lthumb -13.8532 44.0297
rfemur -86.2961 -9.82294 30.1675
rtibia 135.054
rfoot 10.6619 -9.48707
rtoes 10.5012
lfemur -86.2514 14.062 -36.6202
ltibia 133.841
lfoot -1.30222 -3.55037
ltoes -3.48981
1746
root -0.101408 15.549 -4.58683 -18.2011 1.04543 -716.57
lowerback 23.3933 0.869216 -4.08782
upperback 10.2974 0.324765 1.17474
thorax -1.74649 0.0114711 3.51606
lowerneck -20.0252 -6.43577 -13.1384
upperneck 17.3292 -6.55767 7.46263
head 9.46368 -3.13242 3.801
rclavicle -2.18663e-015 -4.77083e-015
rhumerus -32.7057 21.3812 -91.0414
rradius 101.455
rwrist 28.3215
rhand -39.2123 16.9561
rfingers 7.12502
rthumb -12.2083 -12.6676
lclavicle -2.18663e-015 -4.77083e-015
lhumerus -32.4257 -22.9565 93.6913
lradius 91.5805
lwrist -26.6942
lhand -40.9917 14.4846
lfingers 7.12502
lthumb -13.9237 43.9985
rfemur -86.4155 -9.79799 30.1937
rtibia 135.076
rfoot 10.3436 -9.3841
rtoes 11.285
lfemur -86.3893 14.0918 -36.6537
ltibia 133.924
lfoot -1.16741 -3.50849
ltoes -3.75682
